# xmcd
#
# Track frame offsets:
#	150
#	7280
#	20087
#	34662
#	40847
#	52272
#	67272
#	76212
#	89292
#	102915
#	113790
#	125640
#	142422
#	152380
#
# Disc length: 2287 seconds
#
# Revision: 1
# Processed by: cddbd v1.5PL3 Copyright (c) Steve Scherf et al.
# Submitted via: audiograbber 1.82.02
#
DISCID=c708ed0e
DTITLE=Detlef Malinkewitz - the very best of ELVIS PRESLEY
DYEAR=1900
DGENRE=
TTITLE0=Blue Suede Shoes
TTITLE1=Are You Lonesome Tonight
TTITLE2=Let It Be Me
TTITLE3=Hound Dog
TTITLE4=In The Ghetto
TTITLE5=Green Green Grass Of Home
TTITLE6=Long Tall Sally - Whole Lotta Shakin Going On
TTITLE7=Can´t Help Falling In Love
TTITLE8=What Now My Love
TTITLE9=One Night
TTITLE10=The Wonderer Of You
TTITLE11=Always On My Mind
TTITLE12=A Big Hunk O´Love
TTITLE13=American Trilogy
EXTD=
EXTT0=
EXTT1=
EXTT2=
EXTT3=
EXTT4=
EXTT5=
EXTT6=
EXTT7=
EXTT8=
EXTT9=
EXTT10=
EXTT11=
EXTT12=
EXTT13=
PLAYORDER=
